<?xml version="1.0" encoding="UTF-8"?>
<svg id="_レイヤー_2" data-name=" レイヤー 2" xmlns="http://www.w3.org/2000/svg" viewBox="0 0 937.65 867.54">
  <defs>
    <style>
      .cls-1 {
        fill: #c1d1d3;
      }
    </style>
  </defs>
  <path class="cls-1" d="M923.67,190.29c-12.95-16.95-32.61-26.67-53.94-26.67h-89.69c5.32,10.37,9.9,21.09,13.71,32.1h75.98c11.24,0,21.6,5.12,28.43,14.06,6.83,8.94,9.04,20.28,6.09,31.13l-15.82,58.01h-81.78c-.89,10.86-2.47,21.57-4.72,32.1h77.75l-28.48,104.43h-99.17c-5.61,6.96-11.64,13.66-18.05,20.07-12.35,12.35-25.76,23.26-40.03,32.63l-1.52,8.63-1.52,8.61-10.86,61.56h-106.23v-38.5c-5.74.39-11.51.59-17.32.59-5.18,0-10.34-.16-15.47-.47v38.38h-106.23l-10.65-60.35-3.02-17.1c-15.05-9.67-29.16-21.03-42.11-33.98-6.42-6.42-12.44-13.12-18.06-20.08h-102.62l-19.91-104.43h72.64c-2.25-10.52-3.83-21.24-4.72-32.09h-74.04l-19.67-103.2h106.61c3.81-11.01,8.39-21.74,13.72-32.1h-126.45l-23.55-123.56C178.54,16.85,158.18,0,134.54,0H16.05C7.19,0,0,7.19,0,16.05s7.19,16.05,16.05,16.05h118.49c8.25,0,15.35,5.88,16.89,13.98l101.86,534.3-22.46,41.37c-12.65,23.31-12.11,50.84,1.45,73.63,13.56,22.79,37.49,36.4,64.02,36.4h27.27c-25.9,10.4-44.19,35.73-44.19,65.35,0,38.89,31.52,70.41,70.41,70.41s70.41-31.52,70.41-70.41c0-29.62-18.29-54.94-44.19-65.35h335.73c-25.9,10.4-44.19,35.73-44.19,65.35,0,38.89,31.52,70.41,70.41,70.41s70.41-31.52,70.41-70.41c0-29.62-18.29-54.94-44.19-65.35h63.41c8.86,0,16.05-7.19,16.05-16.05s-7.19-16.05-16.05-16.05H296.31c-15.1,0-28.72-7.75-36.43-20.72-7.72-12.97-8.03-28.64-.83-41.91l20.63-38.01h508.34c30.52,0,57.45-20.57,65.48-50.01l81.72-299.68c5.61-20.58,1.4-42.1-11.55-59.06ZM283.41,566.95l-18.95-99.41h119.5l.35,1.96,1.8,10.22,15.39,87.23h-118.09ZM822.53,540.59c-4.23,15.52-18.42,26.36-34.51,26.36h-74.69l15.72-89.08,1.82-10.33h111.58l-19.92,73.05ZM668.95,190.29c-4.57,0-8.65,2.12-11.31,5.43h22.62c-2.66-3.31-6.74-5.43-11.31-5.43ZM546.45,308.04c28.17,0,53.66,8.81,71.92,22.97h22.06c-3.86-4.23-8.2-8.23-13.02-11.95-11.57-8.94-25.14-15.74-39.91-20.14h-13.69v-3.32c-8.85-1.69-18.02-2.56-27.36-2.56-1.81,0-3.62.03-5.42.1v5.78h-35.63c-14.77,4.4-28.34,11.2-39.91,20.14-4.82,3.73-9.17,7.73-13.02,11.96h22.05c18.26-14.17,43.76-22.98,71.93-22.98ZM424.95,190.29c-4.57,0-8.65,2.12-11.31,5.43h22.62c-2.66-3.31-6.74-5.43-11.31-5.43ZM424.95,219.29c-8.01,0-14.5-6.49-14.5-14.5,0-3.44,1.19-6.59,3.19-9.07,2.66-3.31,6.74-5.43,11.31-5.43s8.65,2.12,11.31,5.43c2,2.48,3.19,5.63,3.19,9.07,0,8.01-6.49,14.5-14.5,14.5ZM640.43,331.01c13.99,15.32,21.52,33.69,21.52,53.03,0,4.14-3.36,7.5-7.5,7.5s-7.5-3.36-7.5-7.5c0-20.62-10.9-39.33-28.58-53.03-18.26-14.16-43.75-22.97-71.92-22.97s-53.67,8.81-71.93,22.98c-17.67,13.69-28.57,32.41-28.57,53.02,0,4.14-3.36,7.5-7.5,7.5s-7.5-3.36-7.5-7.5c0-19.34,7.54-37.69,21.52-53.02,3.85-4.23,8.2-8.23,13.02-11.96,11.57-8.94,25.14-15.74,39.91-20.14,11.3-3.37,23.29-5.34,35.63-5.78,1.8-.07,3.61-.1,5.42-.1,9.34,0,18.51.87,27.36,2.56,4.66.87,9.23,1.99,13.69,3.32,14.77,4.4,28.34,11.2,39.91,20.14,4.82,3.72,9.16,7.72,13.02,11.95ZM668.95,219.29c-8.01,0-14.5-6.49-14.5-14.5,0-3.44,1.19-6.59,3.19-9.07,2.66-3.31,6.74-5.43,11.31-5.43s8.65,2.12,11.31,5.43c2,2.48,3.19,5.63,3.19,9.07,0,8.01-6.49,14.5-14.5,14.5ZM687.5,232.29s15.05,18.64,15.05,26.95-6.74,15.05-15.05,15.05-15.05-6.74-15.05-15.05,15.05-26.95,15.05-26.95ZM800.56,195.72c-3.73-11.05-8.18-21.77-13.31-32.1-42.14-84.8-129.64-143.08-230.75-143.08s-188.61,58.28-230.75,143.08c-5.13,10.33-9.58,21.05-13.31,32.1-8.72,25.85-13.44,53.53-13.44,82.32,0,7.03.28,13.99.84,20.88.87,10.9,2.42,21.62,4.62,32.09,8.09,38.72,24.88,74.24,48.23,104.43,8.91,11.52,18.77,22.26,29.47,32.1.71.66,1.43,1.31,2.15,1.96,11.84,10.65,24.66,20.22,38.33,28.55,34.87,21.27,75.2,34.47,118.39,37.03,5.12.31,10.28.46,15.47.46,5.82,0,11.59-.19,17.32-.57,43.34-2.88,83.76-16.49,118.61-38.19,26.11-16.26,49.11-37.08,67.87-61.33,23.35-30.19,40.15-65.71,48.24-104.43,2.2-10.48,3.75-21.19,4.62-32.1.56-6.89.84-13.85.84-20.88,0-28.79-4.72-56.47-13.44-82.32ZM801.93,331.02c-8.16,38.16-25.13,73.79-49.9,104.43-5.61,6.96-11.64,13.66-18.05,20.07-12.35,12.35-25.76,23.26-40.03,32.63-35.75,23.5-76.87,37.38-120.13,40.3-5.74.39-11.51.59-17.32.59-5.18,0-10.34-.16-15.47-.47-43.1-2.6-84.13-16.06-119.9-39.07-15.05-9.67-29.16-21.03-42.11-33.98-6.42-6.42-12.44-13.12-18.06-20.08-24.77-30.64-41.74-66.27-49.89-104.43-2.25-10.52-3.83-21.24-4.72-32.09-.56-6.91-.85-13.87-.85-20.88,0-28.46,4.71-56.2,13.75-82.32,3.81-11.01,8.39-21.74,13.72-32.1,11.8-23,27.25-44.26,46.05-63.06,47.4-47.41,110.44-73.52,177.48-73.52s130.07,26.11,177.48,73.52c18.8,18.8,34.25,40.06,46.06,63.06,5.32,10.37,9.9,21.09,13.71,32.1,9.04,26.12,13.75,53.86,13.75,82.32,0,7.01-.29,13.97-.85,20.88-.89,10.86-2.47,21.57-4.72,32.1ZM807.48,195.72c-3.59-10.98-7.9-21.7-12.91-32.1-12.74-26.47-30.01-50.88-51.39-72.26-49.87-49.86-116.16-77.32-186.68-77.32s-136.82,27.46-186.68,77.32c-21.38,21.39-38.64,45.8-51.39,72.26-5.01,10.4-9.32,21.11-12.91,32.1-8.57,26.22-13.02,53.93-13.02,82.32,0,7.01.27,13.97.81,20.88.84,10.85,2.34,21.56,4.48,32.09,7.66,37.83,23.52,73.35,46.7,104.43,7.65,10.27,16.11,20.06,25.33,29.28.95.95,1.91,1.89,2.87,2.82,4.35,4.23,8.83,8.29,13.42,12.18,11.96,10.14,24.69,19.12,38.04,26.88,35.41,20.58,75.23,32.61,116.88,34.99,5.13.3,10.29.45,15.47.45,5.81,0,11.58-.19,17.32-.56,41.79-2.68,81.69-15.08,117.09-36.09,13.41-7.96,26.17-17.15,38.14-27.52,3.84-3.32,7.59-6.76,11.26-10.33.96-.93,1.92-1.87,2.87-2.82,9.22-9.22,17.67-19,25.32-29.27,23.18-31.08,39.05-66.6,46.71-104.43,2.14-10.53,3.64-21.25,4.48-32.1.54-6.91.81-13.87.81-20.88,0-28.39-4.45-56.09-13.02-82.32ZM806.65,298.92c-.89,10.86-2.47,21.57-4.72,32.1-8.16,38.16-25.13,73.79-49.9,104.43-5.61,6.96-11.64,13.66-18.05,20.07-12.35,12.35-25.76,23.26-40.03,32.63-35.75,23.5-76.87,37.38-120.13,40.3-5.74.39-11.51.59-17.32.59-5.18,0-10.34-.16-15.47-.47-43.1-2.6-84.13-16.06-119.9-39.07-15.05-9.67-29.16-21.03-42.11-33.98-6.42-6.42-12.44-13.12-18.06-20.08-24.77-30.64-41.74-66.27-49.89-104.43-2.25-10.52-3.83-21.24-4.72-32.09-.56-6.91-.85-13.87-.85-20.88,0-28.46,4.71-56.2,13.75-82.32,3.81-11.01,8.39-21.74,13.72-32.1,11.8-23,27.25-44.26,46.05-63.06,47.4-47.41,110.44-73.52,177.48-73.52s130.07,26.11,177.48,73.52c18.8,18.8,34.25,40.06,46.06,63.06,5.32,10.37,9.9,21.09,13.71,32.1,9.04,26.12,13.75,53.86,13.75,82.32,0,7.01-.29,13.97-.85,20.88ZM439.45,204.79c0,8.01-6.49,14.5-14.5,14.5s-14.5-6.49-14.5-14.5c0-3.44,1.19-6.59,3.19-9.07,2.66-3.31,6.74-5.43,11.31-5.43s8.65,2.12,11.31,5.43c2,2.48,3.19,5.63,3.19,9.07ZM683.45,204.79c0,8.01-6.49,14.5-14.5,14.5s-14.5-6.49-14.5-14.5c0-3.44,1.19-6.59,3.19-9.07,2.66-3.31,6.74-5.43,11.31-5.43s8.65,2.12,11.31,5.43c2,2.48,3.19,5.63,3.19,9.07ZM661.95,384.04c0,4.14-3.36,7.5-7.5,7.5s-7.5-3.36-7.5-7.5c0-20.62-10.9-39.33-28.58-53.03-18.26-14.16-43.75-22.97-71.92-22.97s-53.67,8.81-71.93,22.98c-17.67,13.69-28.57,32.41-28.57,53.02,0,4.14-3.36,7.5-7.5,7.5s-7.5-3.36-7.5-7.5c0-19.34,7.54-37.69,21.52-53.02,3.85-4.23,8.2-8.23,13.02-11.96,11.57-8.94,25.14-15.74,39.91-20.14,11.3-3.37,23.29-5.34,35.63-5.78,1.8-.07,3.61-.1,5.42-.1,9.34,0,18.51.87,27.36,2.56,4.66.87,9.23,1.99,13.69,3.32,14.77,4.4,28.34,11.2,39.91,20.14,4.82,3.72,9.16,7.72,13.02,11.95,13.99,15.32,21.52,33.69,21.52,53.03ZM702.55,259.24c0,8.31-6.74,15.05-15.05,15.05s-15.05-6.74-15.05-15.05,15.05-26.95,15.05-26.95c0,0,15.05,18.64,15.05,26.95Z"/>
</svg>