<svg width="203" height="34" viewBox="0 0 203 34" fill="none" xmlns="http://www.w3.org/2000/svg">
<path d="M11.5 0C11.5 0 22.5 16.4249 22.5 22.5C22.5 27.7929 14.1503 32.2122 12 33.2627V18.6172C13.2335 18.383 14.167 17.3017 14.167 16C14.167 14.5272 12.9728 13.333 11.5 13.333C10.0272 13.333 8.83301 14.5272 8.83301 16C8.83301 17.3017 9.76648 18.383 11 18.6172V33.2627C8.84973 32.2122 0.5 27.7929 0.5 22.5C0.5 16.4249 11.5 0 11.5 0Z" fill="#F4F3F2"/>
<path d="M39.652 22.1633C40.004 22.3713 40.46 22.5313 41.02 22.6433C41.596 22.7393 42.188 22.8033 42.796 22.8353C43.404 22.8513 43.932 22.8593 44.38 22.8593C44.556 22.8593 44.756 22.8593 44.98 22.8593C45.22 22.8433 45.428 22.8353 45.604 22.8353C46.18 22.8193 46.684 22.7553 47.116 22.6433C47.548 22.5153 47.876 22.3073 48.1 22.0193C48.34 21.7313 48.46 21.3233 48.46 20.7953C48.46 20.1393 48.284 19.7153 47.932 19.5233C47.596 19.3313 47.1 19.2353 46.444 19.2353C46.22 19.2353 45.98 19.2353 45.724 19.2353C45.468 19.2353 45.172 19.2353 44.836 19.2353C44.516 19.2353 44.14 19.2353 43.708 19.2353C43.228 19.2353 42.748 19.2113 42.268 19.1633C41.788 19.1153 41.356 19.0113 40.972 18.8513C40.588 18.6753 40.276 18.4033 40.036 18.0353C39.796 17.6513 39.676 17.1153 39.676 16.4273C39.676 15.6273 39.82 14.9953 40.108 14.5313C40.396 14.0673 40.796 13.7313 41.308 13.5233C41.836 13.2993 42.436 13.1553 43.108 13.0913C43.796 13.0273 44.548 12.9953 45.364 12.9953C45.844 12.9953 46.372 13.0033 46.948 13.0193C47.524 13.0353 48.076 13.0753 48.604 13.1393C49.132 13.1873 49.54 13.2753 49.828 13.4033C50.164 13.4353 50.42 13.5393 50.596 13.7153C50.788 13.8753 50.884 14.0833 50.884 14.3393C50.884 14.3873 50.884 14.4673 50.884 14.5793C50.884 14.6913 50.884 14.7953 50.884 14.8913C50.884 14.9873 50.884 15.0593 50.884 15.1073C50.756 14.9473 50.516 14.8273 50.164 14.7473C49.828 14.6513 49.444 14.5793 49.012 14.5313C48.58 14.4833 48.156 14.4513 47.74 14.4353C47.34 14.4033 46.996 14.3873 46.708 14.3873H45.076C44.532 14.3873 44.044 14.4353 43.612 14.5313C43.18 14.6113 42.836 14.7873 42.58 15.0593C42.324 15.3153 42.196 15.7153 42.196 16.2593C42.196 16.6753 42.276 16.9953 42.436 17.2193C42.612 17.4273 42.86 17.5713 43.18 17.6513C43.516 17.7153 43.908 17.7473 44.356 17.7473C45.092 17.7473 45.716 17.7473 46.228 17.7473C46.74 17.7473 47.132 17.7473 47.404 17.7473C48.124 17.7473 48.756 17.8113 49.3 17.9393C49.86 18.0513 50.292 18.3153 50.596 18.7313C50.916 19.1473 51.076 19.8033 51.076 20.6993C51.076 21.5473 50.892 22.2273 50.524 22.7393C50.156 23.2353 49.652 23.5953 49.012 23.8193C48.372 24.0273 47.636 24.1553 46.804 24.2033C46.308 24.2353 45.828 24.2513 45.364 24.2513C44.9 24.2673 44.412 24.2673 43.9 24.2513C43.436 24.2513 42.956 24.2353 42.46 24.2033C41.964 24.1713 41.5 24.1153 41.068 24.0353C40.652 23.9393 40.308 23.8113 40.036 23.6513C39.78 23.4913 39.652 23.2753 39.652 23.0033V22.1633ZM58.9566 24.2753C57.9806 24.2753 57.1566 24.2113 56.4846 24.0833C55.8286 23.9553 55.3006 23.7153 54.9006 23.3633C54.5166 23.0113 54.2446 22.5233 54.0846 21.8993C53.9246 21.2753 53.8446 20.4673 53.8446 19.4753C53.8446 18.2913 53.9966 17.3313 54.3006 16.5953C54.6046 15.8593 55.1406 15.3233 55.9086 14.9873C56.6926 14.6353 57.7806 14.4593 59.1726 14.4593C60.2606 14.4593 61.1246 14.5953 61.7646 14.8673C62.4206 15.1233 62.8926 15.5313 63.1806 16.0913C63.4686 16.6513 63.6126 17.3633 63.6126 18.2273V19.7633H56.8686C56.8686 19.5073 56.9246 19.2993 57.0366 19.1393C57.1486 18.9793 57.3566 18.8993 57.6606 18.8993H61.5966L61.5726 18.2753C61.5566 17.3793 61.3646 16.7233 60.9966 16.3073C60.6446 15.8913 60.0046 15.6833 59.0766 15.6833C58.3086 15.6833 57.7086 15.8033 57.2766 16.0433C56.8446 16.2833 56.5406 16.6753 56.3646 17.2193C56.1886 17.7473 56.1006 18.4833 56.1006 19.4273C56.1006 20.4033 56.1966 21.1473 56.3886 21.6593C56.5966 22.1553 56.9326 22.4913 57.3966 22.6673C57.8766 22.8433 58.5406 22.9313 59.3886 22.9313C59.6926 22.9313 60.0446 22.9233 60.4446 22.9073C60.8606 22.8913 61.2766 22.8673 61.6926 22.8353C62.1246 22.8033 62.5086 22.7633 62.8446 22.7153C63.1806 22.6673 63.4046 22.6193 63.5166 22.5713V22.9073C63.5166 23.0833 63.4766 23.2593 63.3966 23.4353C63.3166 23.6113 63.1486 23.7553 62.8926 23.8673C62.5566 24.0273 62.0606 24.1313 61.4046 24.1793C60.7646 24.2433 59.9486 24.2753 58.9566 24.2753ZM68.7119 24.1313H67.1759C66.9359 24.1313 66.7519 24.0673 66.6239 23.9393C66.4959 23.8113 66.4319 23.5713 66.4319 23.2193V15.0353C66.8159 14.9233 67.3519 14.8033 68.0399 14.6753C68.7279 14.5473 69.5519 14.4833 70.5119 14.4833C71.4559 14.4833 72.1999 14.5473 72.7439 14.6753C73.2879 14.7873 73.6879 14.9633 73.9439 15.2033C74.2159 15.4273 74.3839 15.7073 74.4479 16.0433C74.5279 16.3633 74.5679 16.7393 74.5679 17.1713H72.4079L72.3839 16.8353C72.3839 16.4513 72.2799 16.1793 72.0719 16.0193C71.8799 15.8433 71.6479 15.7313 71.3759 15.6833C71.1039 15.6353 70.8319 15.6113 70.5599 15.6113C70.1439 15.6113 69.7679 15.6513 69.4319 15.7313C69.1119 15.8113 68.8719 15.9153 68.7119 16.0433V24.1313ZM81.8185 24.2753C80.8425 24.2753 80.0185 24.2113 79.3465 24.0833C78.6905 23.9553 78.1625 23.7153 77.7625 23.3633C77.3785 23.0113 77.1065 22.5233 76.9465 21.8993C76.7865 21.2753 76.7065 20.4673 76.7065 19.4753C76.7065 18.2913 76.8585 17.3313 77.1625 16.5953C77.4665 15.8593 78.0025 15.3233 78.7705 14.9873C79.5545 14.6353 80.6425 14.4593 82.0345 14.4593C83.1225 14.4593 83.9865 14.5953 84.6265 14.8673C85.2825 15.1233 85.7545 15.5313 86.0425 16.0913C86.3305 16.6513 86.4745 17.3633 86.4745 18.2273V19.7633H79.7305C79.7305 19.5073 79.7865 19.2993 79.8985 19.1393C80.0105 18.9793 80.2185 18.8993 80.5225 18.8993H84.4585L84.4345 18.2753C84.4185 17.3793 84.2265 16.7233 83.8585 16.3073C83.5065 15.8913 82.8665 15.6833 81.9385 15.6833C81.1705 15.6833 80.5705 15.8033 80.1385 16.0433C79.7065 16.2833 79.4025 16.6753 79.2265 17.2193C79.0505 17.7473 78.9625 18.4833 78.9625 19.4273C78.9625 20.4033 79.0585 21.1473 79.2505 21.6593C79.4585 22.1553 79.7945 22.4913 80.2585 22.6673C80.7385 22.8433 81.4025 22.9313 82.2505 22.9313C82.5545 22.9313 82.9065 22.9233 83.3065 22.9073C83.7225 22.8913 84.1385 22.8673 84.5545 22.8353C84.9865 22.8033 85.3705 22.7633 85.7065 22.7153C86.0425 22.6673 86.2665 22.6193 86.3785 22.5713V22.9073C86.3785 23.0833 86.3385 23.2593 86.2585 23.4353C86.1785 23.6113 86.0105 23.7553 85.7545 23.8673C85.4185 24.0273 84.9225 24.1313 84.2665 24.1793C83.6265 24.2433 82.8105 24.2753 81.8185 24.2753ZM89.9658 24.1313C89.5178 24.1313 89.2938 23.9073 89.2938 23.4593V15.2033C89.7738 15.0113 90.4218 14.8433 91.2378 14.6993C92.0538 14.5393 92.9818 14.4593 94.0218 14.4593C95.0458 14.4593 95.8618 14.5233 96.4698 14.6513C97.0938 14.7793 97.5658 14.9873 97.8858 15.2753C98.2058 15.5473 98.4138 15.9073 98.5098 16.3553C98.6218 16.8033 98.6778 17.3553 98.6778 18.0113V23.2193C98.6778 23.4433 98.6538 23.6273 98.6058 23.7713C98.5738 23.9153 98.4858 24.0113 98.3418 24.0593C98.2138 24.1073 98.0138 24.1313 97.7418 24.1313H96.4218V17.5313C96.4218 16.9073 96.2298 16.4593 95.8458 16.1873C95.4618 15.9153 94.8538 15.7793 94.0218 15.7793C93.7658 15.7793 93.4778 15.8033 93.1578 15.8513C92.8378 15.8833 92.5338 15.9393 92.2458 16.0193C91.9578 16.0993 91.7258 16.2033 91.5498 16.3313V24.1313H89.9658ZM106.673 24.2753C105.697 24.2753 104.873 24.2113 104.201 24.0833C103.545 23.9553 103.017 23.7153 102.617 23.3633C102.233 23.0113 101.961 22.5233 101.801 21.8993C101.641 21.2753 101.561 20.4673 101.561 19.4753C101.561 18.2913 101.713 17.3313 102.017 16.5953C102.321 15.8593 102.857 15.3233 103.625 14.9873C104.409 14.6353 105.497 14.4593 106.889 14.4593C107.977 14.4593 108.841 14.5953 109.481 14.8673C110.137 15.1233 110.609 15.5313 110.897 16.0913C111.185 16.6513 111.329 17.3633 111.329 18.2273V19.7633H104.585C104.585 19.5073 104.641 19.2993 104.753 19.1393C104.865 18.9793 105.073 18.8993 105.377 18.8993H109.313L109.289 18.2753C109.273 17.3793 109.081 16.7233 108.713 16.3073C108.361 15.8913 107.721 15.6833 106.793 15.6833C106.025 15.6833 105.425 15.8033 104.993 16.0433C104.561 16.2833 104.257 16.6753 104.081 17.2193C103.905 17.7473 103.817 18.4833 103.817 19.4273C103.817 20.4033 103.913 21.1473 104.105 21.6593C104.313 22.1553 104.649 22.4913 105.113 22.6673C105.593 22.8433 106.257 22.9313 107.105 22.9313C107.409 22.9313 107.761 22.9233 108.161 22.9073C108.577 22.8913 108.993 22.8673 109.409 22.8353C109.841 22.8033 110.225 22.7633 110.561 22.7153C110.897 22.6673 111.121 22.6193 111.233 22.5713V22.9073C111.233 23.0833 111.193 23.2593 111.113 23.4353C111.033 23.6113 110.865 23.7553 110.609 23.8673C110.273 24.0273 109.777 24.1313 109.121 24.1793C108.481 24.2433 107.665 24.2753 106.673 24.2753Z" fill="#F4F3F2"/>
<path d="M118.324 24.1313V14.1953C118.324 13.7153 118.372 13.4113 118.468 13.2833C118.564 13.1553 118.82 13.0913 119.236 13.0913H121.492L128.068 21.6113L128.14 21.8033V13.0913H130.012C129.98 13.1073 129.956 13.1793 129.94 13.3073C129.94 13.4353 129.94 13.5713 129.94 13.7153C129.94 13.8593 129.94 13.9953 129.94 14.1233V23.1473C129.94 23.5953 129.868 23.8753 129.724 23.9873C129.58 24.0833 129.3 24.1313 128.884 24.1313H126.82L120.172 15.5153L120.124 15.2753V24.1313H118.324ZM135.909 14.5553V20.9633C135.909 21.6993 136.109 22.2193 136.509 22.5233C136.909 22.8273 137.533 22.9793 138.381 22.9793C139.293 22.9793 139.941 22.8193 140.325 22.4993C140.725 22.1793 140.925 21.6673 140.925 20.9633V14.5553C140.941 14.5553 141.005 14.5553 141.117 14.5553C141.245 14.5553 141.381 14.5553 141.525 14.5553C141.669 14.5553 141.805 14.5553 141.933 14.5553C142.061 14.5553 142.141 14.5553 142.173 14.5553C142.429 14.5553 142.629 14.5713 142.773 14.6033C142.917 14.6193 143.013 14.6913 143.061 14.8193C143.125 14.9313 143.157 15.1233 143.157 15.3953V20.6273C143.157 21.4753 143.029 22.1713 142.773 22.7153C142.517 23.2433 142.037 23.6353 141.333 23.8913C140.645 24.1313 139.653 24.2513 138.357 24.2513C137.141 24.2513 136.189 24.1473 135.501 23.9393C134.829 23.7313 134.349 23.3793 134.061 22.8833C133.789 22.3713 133.653 21.6753 133.653 20.7953V15.3953C133.653 15.0593 133.709 14.8353 133.821 14.7233C133.933 14.6113 134.157 14.5553 134.493 14.5553C134.733 14.5553 134.965 14.5553 135.189 14.5553C135.429 14.5553 135.669 14.5553 135.909 14.5553ZM148.61 24.1313H147.074C146.834 24.1313 146.65 24.0673 146.522 23.9393C146.394 23.8113 146.33 23.5713 146.33 23.2193V15.0353C146.714 14.9233 147.25 14.8033 147.938 14.6753C148.626 14.5473 149.45 14.4833 150.41 14.4833C151.354 14.4833 152.098 14.5473 152.642 14.6753C153.186 14.7873 153.586 14.9633 153.842 15.2033C154.114 15.4273 154.282 15.7073 154.346 16.0433C154.426 16.3633 154.466 16.7393 154.466 17.1713H152.306L152.282 16.8353C152.282 16.4513 152.178 16.1793 151.97 16.0193C151.778 15.8433 151.546 15.7313 151.274 15.6833C151.002 15.6353 150.73 15.6113 150.458 15.6113C150.042 15.6113 149.666 15.6513 149.33 15.7313C149.01 15.8113 148.77 15.9153 148.61 16.0433V24.1313ZM160.637 24.2273C160.333 24.2273 159.973 24.2193 159.557 24.2033C159.141 24.1873 158.717 24.1553 158.285 24.1073C157.869 24.0433 157.493 23.9553 157.157 23.8433C156.949 23.7953 156.781 23.7313 156.653 23.6513C156.541 23.5713 156.453 23.4353 156.389 23.2433C156.341 23.0353 156.317 22.7233 156.317 22.3073C156.717 22.4833 157.165 22.6273 157.661 22.7393C158.157 22.8353 158.645 22.8993 159.125 22.9313C159.621 22.9633 160.045 22.9793 160.397 22.9793C160.829 22.9793 161.253 22.9633 161.669 22.9313C162.101 22.8993 162.493 22.8273 162.845 22.7153C163.213 22.6033 163.501 22.4273 163.709 22.1873C163.933 21.9473 164.045 21.6193 164.045 21.2033C164.045 20.6433 163.901 20.2833 163.613 20.1233C163.325 19.9633 162.925 19.8833 162.413 19.8833H159.893C159.269 19.8833 158.685 19.8433 158.141 19.7633C157.613 19.6833 157.181 19.4753 156.845 19.1393C156.525 18.8033 156.365 18.2353 156.365 17.4353C156.365 16.5553 156.581 15.8993 157.013 15.4673C157.445 15.0353 158.053 14.7553 158.837 14.6273C159.637 14.4993 160.573 14.4353 161.645 14.4353C162.045 14.4353 162.509 14.4433 163.037 14.4593C163.581 14.4753 164.085 14.5233 164.549 14.6033C164.933 14.6353 165.237 14.6993 165.461 14.7953C165.701 14.8753 165.877 14.9953 165.989 15.1553C166.101 15.2993 166.157 15.5233 166.157 15.8273V16.3793C166.013 16.2033 165.765 16.0753 165.413 15.9953C165.061 15.8993 164.645 15.8273 164.165 15.7793C163.701 15.7313 163.213 15.7073 162.701 15.7073C162.205 15.6913 161.741 15.6833 161.309 15.6833C160.845 15.6833 160.397 15.7153 159.965 15.7793C159.549 15.8273 159.213 15.9633 158.957 16.1873C158.701 16.4113 158.573 16.7793 158.573 17.2913C158.573 17.6913 158.653 17.9793 158.813 18.1553C158.973 18.3313 159.197 18.4433 159.485 18.4913C159.773 18.5393 160.101 18.5633 160.469 18.5633H163.109C163.749 18.5633 164.309 18.6193 164.789 18.7313C165.269 18.8433 165.645 19.0833 165.917 19.4513C166.189 19.8193 166.325 20.3953 166.325 21.1793C166.325 22.0753 166.077 22.7393 165.581 23.1713C165.085 23.6033 164.413 23.8913 163.565 24.0353C162.717 24.1633 161.741 24.2273 160.637 24.2273ZM173.71 24.2753C172.734 24.2753 171.91 24.2113 171.238 24.0833C170.582 23.9553 170.054 23.7153 169.654 23.3633C169.27 23.0113 168.998 22.5233 168.838 21.8993C168.678 21.2753 168.598 20.4673 168.598 19.4753C168.598 18.2913 168.75 17.3313 169.054 16.5953C169.358 15.8593 169.894 15.3233 170.662 14.9873C171.446 14.6353 172.534 14.4593 173.926 14.4593C175.014 14.4593 175.878 14.5953 176.518 14.8673C177.174 15.1233 177.646 15.5313 177.934 16.0913C178.222 16.6513 178.366 17.3633 178.366 18.2273V19.7633H171.622C171.622 19.5073 171.678 19.2993 171.79 19.1393C171.902 18.9793 172.11 18.8993 172.414 18.8993H176.35L176.326 18.2753C176.31 17.3793 176.118 16.7233 175.75 16.3073C175.398 15.8913 174.758 15.6833 173.83 15.6833C173.062 15.6833 172.462 15.8033 172.03 16.0433C171.598 16.2833 171.294 16.6753 171.118 17.2193C170.942 17.7473 170.854 18.4833 170.854 19.4273C170.854 20.4033 170.95 21.1473 171.142 21.6593C171.35 22.1553 171.686 22.4913 172.15 22.6673C172.63 22.8433 173.294 22.9313 174.142 22.9313C174.446 22.9313 174.798 22.9233 175.198 22.9073C175.614 22.8913 176.03 22.8673 176.446 22.8353C176.878 22.8033 177.262 22.7633 177.598 22.7153C177.934 22.6673 178.158 22.6193 178.27 22.5713V22.9073C178.27 23.0833 178.23 23.2593 178.15 23.4353C178.07 23.6113 177.902 23.7553 177.646 23.8673C177.31 24.0273 176.814 24.1313 176.158 24.1793C175.518 24.2433 174.702 24.2753 173.71 24.2753ZM183.466 24.1313H181.93C181.69 24.1313 181.506 24.0673 181.378 23.9393C181.25 23.8113 181.186 23.5713 181.186 23.2193V15.0353C181.57 14.9233 182.106 14.8033 182.794 14.6753C183.482 14.5473 184.306 14.4833 185.266 14.4833C186.21 14.4833 186.954 14.5473 187.498 14.6753C188.042 14.7873 188.442 14.9633 188.698 15.2033C188.97 15.4273 189.138 15.7073 189.202 16.0433C189.282 16.3633 189.322 16.7393 189.322 17.1713H187.162L187.138 16.8353C187.138 16.4513 187.034 16.1793 186.826 16.0193C186.634 15.8433 186.402 15.7313 186.13 15.6833C185.858 15.6353 185.586 15.6113 185.314 15.6113C184.898 15.6113 184.522 15.6513 184.186 15.7313C183.866 15.8113 183.626 15.9153 183.466 16.0433V24.1313ZM196.164 26.7953C195.38 26.7953 194.644 26.7553 193.956 26.6753C193.284 26.6113 192.732 26.4993 192.3 26.3393C191.884 26.1953 191.676 26.0113 191.676 25.7873V25.0673C191.932 25.2113 192.276 25.3313 192.708 25.4273C193.156 25.5233 193.62 25.5953 194.1 25.6433C194.596 25.7073 195.068 25.7393 195.516 25.7393C196.284 25.7393 196.9 25.6353 197.364 25.4273C197.844 25.2353 198.196 24.9233 198.42 24.4913C198.644 24.0593 198.756 23.5073 198.756 22.8353V21.6593C198.612 21.9793 198.38 22.2433 198.06 22.4513C197.756 22.6593 197.372 22.8113 196.908 22.9073C196.444 22.9873 195.884 23.0273 195.228 23.0273C194.124 23.0273 193.308 22.8673 192.78 22.5473C192.252 22.2273 191.908 21.7713 191.748 21.1793C191.604 20.5873 191.532 19.8993 191.532 19.1153V15.5873C191.532 15.3473 191.548 15.1553 191.58 15.0113C191.612 14.8513 191.684 14.7393 191.796 14.6753C191.908 14.5953 192.092 14.5553 192.348 14.5553H193.836C193.836 14.9713 193.836 15.3553 193.836 15.7073C193.836 16.0593 193.836 16.4033 193.836 16.7393C193.836 17.0593 193.836 17.4033 193.836 17.7713C193.836 18.1233 193.836 18.5073 193.836 18.9233C193.836 19.8353 193.94 20.5073 194.148 20.9393C194.356 21.3553 194.644 21.6193 195.012 21.7313C195.38 21.8433 195.804 21.8993 196.284 21.8993C196.764 21.8993 197.188 21.8353 197.556 21.7073C197.924 21.5633 198.212 21.2913 198.42 20.8913C198.628 20.4913 198.732 19.8913 198.732 19.0913V14.5553H200.196C200.484 14.5553 200.692 14.5953 200.82 14.6753C200.948 14.7553 201.012 14.9873 201.012 15.3713V22.6433C201.012 24.0833 200.628 25.1313 199.86 25.7873C199.092 26.4593 197.86 26.7953 196.164 26.7953Z" fill="#F4F3F2"/>
</svg>
