<svg width="202" height="34" viewBox="0 0 202 34" fill="none" xmlns="http://www.w3.org/2000/svg">
<path d="M11 0C11 0 22 16.4249 22 22.5C22 27.7929 13.6503 32.2122 11.5 33.2627V18.6172C12.7335 18.383 13.667 17.3017 13.667 16C13.667 14.5272 12.4728 13.333 11 13.333C9.52724 13.333 8.33301 14.5272 8.33301 16C8.33301 17.3017 9.26648 18.383 10.5 18.6172V33.2627C8.34973 32.2122 0 27.7929 0 22.5C0 16.4249 11 0 11 0Z" fill="#394931"/>
<path d="M39.152 22.1633C39.504 22.3713 39.96 22.5313 40.52 22.6433C41.096 22.7393 41.688 22.8033 42.296 22.8353C42.904 22.8513 43.432 22.8593 43.88 22.8593C44.056 22.8593 44.256 22.8593 44.48 22.8593C44.72 22.8433 44.928 22.8353 45.104 22.8353C45.68 22.8193 46.184 22.7553 46.616 22.6433C47.048 22.5153 47.376 22.3073 47.6 22.0193C47.84 21.7313 47.96 21.3233 47.96 20.7953C47.96 20.1393 47.784 19.7153 47.432 19.5233C47.096 19.3313 46.6 19.2353 45.944 19.2353C45.72 19.2353 45.48 19.2353 45.224 19.2353C44.968 19.2353 44.672 19.2353 44.336 19.2353C44.016 19.2353 43.64 19.2353 43.208 19.2353C42.728 19.2353 42.248 19.2113 41.768 19.1633C41.288 19.1153 40.856 19.0113 40.472 18.8513C40.088 18.6753 39.776 18.4033 39.536 18.0353C39.296 17.6513 39.176 17.1153 39.176 16.4273C39.176 15.6273 39.32 14.9953 39.608 14.5313C39.896 14.0673 40.296 13.7313 40.808 13.5233C41.336 13.2993 41.936 13.1553 42.608 13.0913C43.296 13.0273 44.048 12.9953 44.864 12.9953C45.344 12.9953 45.872 13.0033 46.448 13.0193C47.024 13.0353 47.576 13.0753 48.104 13.1393C48.632 13.1873 49.04 13.2753 49.328 13.4033C49.664 13.4353 49.92 13.5393 50.096 13.7153C50.288 13.8753 50.384 14.0833 50.384 14.3393C50.384 14.3873 50.384 14.4673 50.384 14.5793C50.384 14.6913 50.384 14.7953 50.384 14.8913C50.384 14.9873 50.384 15.0593 50.384 15.1073C50.256 14.9473 50.016 14.8273 49.664 14.7473C49.328 14.6513 48.944 14.5793 48.512 14.5313C48.08 14.4833 47.656 14.4513 47.24 14.4353C46.84 14.4033 46.496 14.3873 46.208 14.3873H44.576C44.032 14.3873 43.544 14.4353 43.112 14.5313C42.68 14.6113 42.336 14.7873 42.08 15.0593C41.824 15.3153 41.696 15.7153 41.696 16.2593C41.696 16.6753 41.776 16.9953 41.936 17.2193C42.112 17.4273 42.36 17.5713 42.68 17.6513C43.016 17.7153 43.408 17.7473 43.856 17.7473C44.592 17.7473 45.216 17.7473 45.728 17.7473C46.24 17.7473 46.632 17.7473 46.904 17.7473C47.624 17.7473 48.256 17.8113 48.8 17.9393C49.36 18.0513 49.792 18.3153 50.096 18.7313C50.416 19.1473 50.576 19.8033 50.576 20.6993C50.576 21.5473 50.392 22.2273 50.024 22.7393C49.656 23.2353 49.152 23.5953 48.512 23.8193C47.872 24.0273 47.136 24.1553 46.304 24.2033C45.808 24.2353 45.328 24.2513 44.864 24.2513C44.4 24.2673 43.912 24.2673 43.4 24.2513C42.936 24.2513 42.456 24.2353 41.96 24.2033C41.464 24.1713 41 24.1153 40.568 24.0353C40.152 23.9393 39.808 23.8113 39.536 23.6513C39.28 23.4913 39.152 23.2753 39.152 23.0033V22.1633ZM58.4566 24.2753C57.4806 24.2753 56.6566 24.2113 55.9846 24.0833C55.3286 23.9553 54.8006 23.7153 54.4006 23.3633C54.0166 23.0113 53.7446 22.5233 53.5846 21.8993C53.4246 21.2753 53.3446 20.4673 53.3446 19.4753C53.3446 18.2913 53.4966 17.3313 53.8006 16.5953C54.1046 15.8593 54.6406 15.3233 55.4086 14.9873C56.1926 14.6353 57.2806 14.4593 58.6726 14.4593C59.7606 14.4593 60.6246 14.5953 61.2646 14.8673C61.9206 15.1233 62.3926 15.5313 62.6806 16.0913C62.9686 16.6513 63.1126 17.3633 63.1126 18.2273V19.7633H56.3686C56.3686 19.5073 56.4246 19.2993 56.5366 19.1393C56.6486 18.9793 56.8566 18.8993 57.1606 18.8993H61.0966L61.0726 18.2753C61.0566 17.3793 60.8646 16.7233 60.4966 16.3073C60.1446 15.8913 59.5046 15.6833 58.5766 15.6833C57.8086 15.6833 57.2086 15.8033 56.7766 16.0433C56.3446 16.2833 56.0406 16.6753 55.8646 17.2193C55.6886 17.7473 55.6006 18.4833 55.6006 19.4273C55.6006 20.4033 55.6966 21.1473 55.8886 21.6593C56.0966 22.1553 56.4326 22.4913 56.8966 22.6673C57.3766 22.8433 58.0406 22.9313 58.8886 22.9313C59.1926 22.9313 59.5446 22.9233 59.9446 22.9073C60.3606 22.8913 60.7766 22.8673 61.1926 22.8353C61.6246 22.8033 62.0086 22.7633 62.3446 22.7153C62.6806 22.6673 62.9046 22.6193 63.0166 22.5713V22.9073C63.0166 23.0833 62.9766 23.2593 62.8966 23.4353C62.8166 23.6113 62.6486 23.7553 62.3926 23.8673C62.0566 24.0273 61.5606 24.1313 60.9046 24.1793C60.2646 24.2433 59.4486 24.2753 58.4566 24.2753ZM68.2119 24.1313H66.6759C66.4359 24.1313 66.2519 24.0673 66.1239 23.9393C65.9959 23.8113 65.9319 23.5713 65.9319 23.2193V15.0353C66.3159 14.9233 66.8519 14.8033 67.5399 14.6753C68.2279 14.5473 69.0519 14.4833 70.0119 14.4833C70.9559 14.4833 71.6999 14.5473 72.2439 14.6753C72.7879 14.7873 73.1879 14.9633 73.4439 15.2033C73.7159 15.4273 73.8839 15.7073 73.9479 16.0433C74.0279 16.3633 74.0679 16.7393 74.0679 17.1713H71.9079L71.8839 16.8353C71.8839 16.4513 71.7799 16.1793 71.5719 16.0193C71.3799 15.8433 71.1479 15.7313 70.8759 15.6833C70.6039 15.6353 70.3319 15.6113 70.0599 15.6113C69.6439 15.6113 69.2679 15.6513 68.9319 15.7313C68.6119 15.8113 68.3719 15.9153 68.2119 16.0433V24.1313ZM81.3185 24.2753C80.3425 24.2753 79.5185 24.2113 78.8465 24.0833C78.1905 23.9553 77.6625 23.7153 77.2625 23.3633C76.8785 23.0113 76.6065 22.5233 76.4465 21.8993C76.2865 21.2753 76.2065 20.4673 76.2065 19.4753C76.2065 18.2913 76.3585 17.3313 76.6625 16.5953C76.9665 15.8593 77.5025 15.3233 78.2705 14.9873C79.0545 14.6353 80.1425 14.4593 81.5345 14.4593C82.6225 14.4593 83.4865 14.5953 84.1265 14.8673C84.7825 15.1233 85.2545 15.5313 85.5425 16.0913C85.8305 16.6513 85.9745 17.3633 85.9745 18.2273V19.7633H79.2305C79.2305 19.5073 79.2865 19.2993 79.3985 19.1393C79.5105 18.9793 79.7185 18.8993 80.0225 18.8993H83.9585L83.9345 18.2753C83.9185 17.3793 83.7265 16.7233 83.3585 16.3073C83.0065 15.8913 82.3665 15.6833 81.4385 15.6833C80.6705 15.6833 80.0705 15.8033 79.6385 16.0433C79.2065 16.2833 78.9025 16.6753 78.7265 17.2193C78.5505 17.7473 78.4625 18.4833 78.4625 19.4273C78.4625 20.4033 78.5585 21.1473 78.7505 21.6593C78.9585 22.1553 79.2945 22.4913 79.7585 22.6673C80.2385 22.8433 80.9025 22.9313 81.7505 22.9313C82.0545 22.9313 82.4065 22.9233 82.8065 22.9073C83.2225 22.8913 83.6385 22.8673 84.0545 22.8353C84.4865 22.8033 84.8705 22.7633 85.2065 22.7153C85.5425 22.6673 85.7665 22.6193 85.8785 22.5713V22.9073C85.8785 23.0833 85.8385 23.2593 85.7585 23.4353C85.6785 23.6113 85.5105 23.7553 85.2545 23.8673C84.9185 24.0273 84.4225 24.1313 83.7665 24.1793C83.1265 24.2433 82.3105 24.2753 81.3185 24.2753ZM89.4658 24.1313C89.0178 24.1313 88.7938 23.9073 88.7938 23.4593V15.2033C89.2738 15.0113 89.9218 14.8433 90.7378 14.6993C91.5538 14.5393 92.4818 14.4593 93.5218 14.4593C94.5458 14.4593 95.3618 14.5233 95.9698 14.6513C96.5938 14.7793 97.0658 14.9873 97.3858 15.2753C97.7058 15.5473 97.9138 15.9073 98.0098 16.3553C98.1218 16.8033 98.1778 17.3553 98.1778 18.0113V23.2193C98.1778 23.4433 98.1538 23.6273 98.1058 23.7713C98.0738 23.9153 97.9858 24.0113 97.8418 24.0593C97.7138 24.1073 97.5138 24.1313 97.2418 24.1313H95.9218V17.5313C95.9218 16.9073 95.7298 16.4593 95.3458 16.1873C94.9618 15.9153 94.3538 15.7793 93.5218 15.7793C93.2658 15.7793 92.9778 15.8033 92.6578 15.8513C92.3378 15.8833 92.0338 15.9393 91.7458 16.0193C91.4578 16.0993 91.2258 16.2033 91.0498 16.3313V24.1313H89.4658ZM106.173 24.2753C105.197 24.2753 104.373 24.2113 103.701 24.0833C103.045 23.9553 102.517 23.7153 102.117 23.3633C101.733 23.0113 101.461 22.5233 101.301 21.8993C101.141 21.2753 101.061 20.4673 101.061 19.4753C101.061 18.2913 101.213 17.3313 101.517 16.5953C101.821 15.8593 102.357 15.3233 103.125 14.9873C103.909 14.6353 104.997 14.4593 106.389 14.4593C107.477 14.4593 108.341 14.5953 108.981 14.8673C109.637 15.1233 110.109 15.5313 110.397 16.0913C110.685 16.6513 110.829 17.3633 110.829 18.2273V19.7633H104.085C104.085 19.5073 104.141 19.2993 104.253 19.1393C104.365 18.9793 104.573 18.8993 104.877 18.8993H108.813L108.789 18.2753C108.773 17.3793 108.581 16.7233 108.213 16.3073C107.861 15.8913 107.221 15.6833 106.293 15.6833C105.525 15.6833 104.925 15.8033 104.493 16.0433C104.061 16.2833 103.757 16.6753 103.581 17.2193C103.405 17.7473 103.317 18.4833 103.317 19.4273C103.317 20.4033 103.413 21.1473 103.605 21.6593C103.813 22.1553 104.149 22.4913 104.613 22.6673C105.093 22.8433 105.757 22.9313 106.605 22.9313C106.909 22.9313 107.261 22.9233 107.661 22.9073C108.077 22.8913 108.493 22.8673 108.909 22.8353C109.341 22.8033 109.725 22.7633 110.061 22.7153C110.397 22.6673 110.621 22.6193 110.733 22.5713V22.9073C110.733 23.0833 110.693 23.2593 110.613 23.4353C110.533 23.6113 110.365 23.7553 110.109 23.8673C109.773 24.0273 109.277 24.1313 108.621 24.1793C107.981 24.2433 107.165 24.2753 106.173 24.2753Z" fill="#394931"/>
<path d="M117.824 24.1313V14.1953C117.824 13.7153 117.872 13.4113 117.968 13.2833C118.064 13.1553 118.32 13.0913 118.736 13.0913H120.992L127.568 21.6113L127.64 21.8033V13.0913H129.512C129.48 13.1073 129.456 13.1793 129.44 13.3073C129.44 13.4353 129.44 13.5713 129.44 13.7153C129.44 13.8593 129.44 13.9953 129.44 14.1233V23.1473C129.44 23.5953 129.368 23.8753 129.224 23.9873C129.08 24.0833 128.8 24.1313 128.384 24.1313H126.32L119.672 15.5153L119.624 15.2753V24.1313H117.824ZM135.409 14.5553V20.9633C135.409 21.6993 135.609 22.2193 136.009 22.5233C136.409 22.8273 137.033 22.9793 137.881 22.9793C138.793 22.9793 139.441 22.8193 139.825 22.4993C140.225 22.1793 140.425 21.6673 140.425 20.9633V14.5553C140.441 14.5553 140.505 14.5553 140.617 14.5553C140.745 14.5553 140.881 14.5553 141.025 14.5553C141.169 14.5553 141.305 14.5553 141.433 14.5553C141.561 14.5553 141.641 14.5553 141.673 14.5553C141.929 14.5553 142.129 14.5713 142.273 14.6033C142.417 14.6193 142.513 14.6913 142.561 14.8193C142.625 14.9313 142.657 15.1233 142.657 15.3953V20.6273C142.657 21.4753 142.529 22.1713 142.273 22.7153C142.017 23.2433 141.537 23.6353 140.833 23.8913C140.145 24.1313 139.153 24.2513 137.857 24.2513C136.641 24.2513 135.689 24.1473 135.001 23.9393C134.329 23.7313 133.849 23.3793 133.561 22.8833C133.289 22.3713 133.153 21.6753 133.153 20.7953V15.3953C133.153 15.0593 133.209 14.8353 133.321 14.7233C133.433 14.6113 133.657 14.5553 133.993 14.5553C134.233 14.5553 134.465 14.5553 134.689 14.5553C134.929 14.5553 135.169 14.5553 135.409 14.5553ZM148.11 24.1313H146.574C146.334 24.1313 146.15 24.0673 146.022 23.9393C145.894 23.8113 145.83 23.5713 145.83 23.2193V15.0353C146.214 14.9233 146.75 14.8033 147.438 14.6753C148.126 14.5473 148.95 14.4833 149.91 14.4833C150.854 14.4833 151.598 14.5473 152.142 14.6753C152.686 14.7873 153.086 14.9633 153.342 15.2033C153.614 15.4273 153.782 15.7073 153.846 16.0433C153.926 16.3633 153.966 16.7393 153.966 17.1713H151.806L151.782 16.8353C151.782 16.4513 151.678 16.1793 151.47 16.0193C151.278 15.8433 151.046 15.7313 150.774 15.6833C150.502 15.6353 150.23 15.6113 149.958 15.6113C149.542 15.6113 149.166 15.6513 148.83 15.7313C148.51 15.8113 148.27 15.9153 148.11 16.0433V24.1313ZM160.137 24.2273C159.833 24.2273 159.473 24.2193 159.057 24.2033C158.641 24.1873 158.217 24.1553 157.785 24.1073C157.369 24.0433 156.993 23.9553 156.657 23.8433C156.449 23.7953 156.281 23.7313 156.153 23.6513C156.041 23.5713 155.953 23.4353 155.889 23.2433C155.841 23.0353 155.817 22.7233 155.817 22.3073C156.217 22.4833 156.665 22.6273 157.161 22.7393C157.657 22.8353 158.145 22.8993 158.625 22.9313C159.121 22.9633 159.545 22.9793 159.897 22.9793C160.329 22.9793 160.753 22.9633 161.169 22.9313C161.601 22.8993 161.993 22.8273 162.345 22.7153C162.713 22.6033 163.001 22.4273 163.209 22.1873C163.433 21.9473 163.545 21.6193 163.545 21.2033C163.545 20.6433 163.401 20.2833 163.113 20.1233C162.825 19.9633 162.425 19.8833 161.913 19.8833H159.393C158.769 19.8833 158.185 19.8433 157.641 19.7633C157.113 19.6833 156.681 19.4753 156.345 19.1393C156.025 18.8033 155.865 18.2353 155.865 17.4353C155.865 16.5553 156.081 15.8993 156.513 15.4673C156.945 15.0353 157.553 14.7553 158.337 14.6273C159.137 14.4993 160.073 14.4353 161.145 14.4353C161.545 14.4353 162.009 14.4433 162.537 14.4593C163.081 14.4753 163.585 14.5233 164.049 14.6033C164.433 14.6353 164.737 14.6993 164.961 14.7953C165.201 14.8753 165.377 14.9953 165.489 15.1553C165.601 15.2993 165.657 15.5233 165.657 15.8273V16.3793C165.513 16.2033 165.265 16.0753 164.913 15.9953C164.561 15.8993 164.145 15.8273 163.665 15.7793C163.201 15.7313 162.713 15.7073 162.201 15.7073C161.705 15.6913 161.241 15.6833 160.809 15.6833C160.345 15.6833 159.897 15.7153 159.465 15.7793C159.049 15.8273 158.713 15.9633 158.457 16.1873C158.201 16.4113 158.073 16.7793 158.073 17.2913C158.073 17.6913 158.153 17.9793 158.313 18.1553C158.473 18.3313 158.697 18.4433 158.985 18.4913C159.273 18.5393 159.601 18.5633 159.969 18.5633H162.609C163.249 18.5633 163.809 18.6193 164.289 18.7313C164.769 18.8433 165.145 19.0833 165.417 19.4513C165.689 19.8193 165.825 20.3953 165.825 21.1793C165.825 22.0753 165.577 22.7393 165.081 23.1713C164.585 23.6033 163.913 23.8913 163.065 24.0353C162.217 24.1633 161.241 24.2273 160.137 24.2273ZM173.21 24.2753C172.234 24.2753 171.41 24.2113 170.738 24.0833C170.082 23.9553 169.554 23.7153 169.154 23.3633C168.77 23.0113 168.498 22.5233 168.338 21.8993C168.178 21.2753 168.098 20.4673 168.098 19.4753C168.098 18.2913 168.25 17.3313 168.554 16.5953C168.858 15.8593 169.394 15.3233 170.162 14.9873C170.946 14.6353 172.034 14.4593 173.426 14.4593C174.514 14.4593 175.378 14.5953 176.018 14.8673C176.674 15.1233 177.146 15.5313 177.434 16.0913C177.722 16.6513 177.866 17.3633 177.866 18.2273V19.7633H171.122C171.122 19.5073 171.178 19.2993 171.29 19.1393C171.402 18.9793 171.61 18.8993 171.914 18.8993H175.85L175.826 18.2753C175.81 17.3793 175.618 16.7233 175.25 16.3073C174.898 15.8913 174.258 15.6833 173.33 15.6833C172.562 15.6833 171.962 15.8033 171.53 16.0433C171.098 16.2833 170.794 16.6753 170.618 17.2193C170.442 17.7473 170.354 18.4833 170.354 19.4273C170.354 20.4033 170.45 21.1473 170.642 21.6593C170.85 22.1553 171.186 22.4913 171.65 22.6673C172.13 22.8433 172.794 22.9313 173.642 22.9313C173.946 22.9313 174.298 22.9233 174.698 22.9073C175.114 22.8913 175.53 22.8673 175.946 22.8353C176.378 22.8033 176.762 22.7633 177.098 22.7153C177.434 22.6673 177.658 22.6193 177.77 22.5713V22.9073C177.77 23.0833 177.73 23.2593 177.65 23.4353C177.57 23.6113 177.402 23.7553 177.146 23.8673C176.81 24.0273 176.314 24.1313 175.658 24.1793C175.018 24.2433 174.202 24.2753 173.21 24.2753ZM182.966 24.1313H181.43C181.19 24.1313 181.006 24.0673 180.878 23.9393C180.75 23.8113 180.686 23.5713 180.686 23.2193V15.0353C181.07 14.9233 181.606 14.8033 182.294 14.6753C182.982 14.5473 183.806 14.4833 184.766 14.4833C185.71 14.4833 186.454 14.5473 186.998 14.6753C187.542 14.7873 187.942 14.9633 188.198 15.2033C188.47 15.4273 188.638 15.7073 188.702 16.0433C188.782 16.3633 188.822 16.7393 188.822 17.1713H186.662L186.638 16.8353C186.638 16.4513 186.534 16.1793 186.326 16.0193C186.134 15.8433 185.902 15.7313 185.63 15.6833C185.358 15.6353 185.086 15.6113 184.814 15.6113C184.398 15.6113 184.022 15.6513 183.686 15.7313C183.366 15.8113 183.126 15.9153 182.966 16.0433V24.1313ZM195.664 26.7953C194.88 26.7953 194.144 26.7553 193.456 26.6753C192.784 26.6113 192.232 26.4993 191.8 26.3393C191.384 26.1953 191.176 26.0113 191.176 25.7873V25.0673C191.432 25.2113 191.776 25.3313 192.208 25.4273C192.656 25.5233 193.12 25.5953 193.6 25.6433C194.096 25.7073 194.568 25.7393 195.016 25.7393C195.784 25.7393 196.4 25.6353 196.864 25.4273C197.344 25.2353 197.696 24.9233 197.92 24.4913C198.144 24.0593 198.256 23.5073 198.256 22.8353V21.6593C198.112 21.9793 197.88 22.2433 197.56 22.4513C197.256 22.6593 196.872 22.8113 196.408 22.9073C195.944 22.9873 195.384 23.0273 194.728 23.0273C193.624 23.0273 192.808 22.8673 192.28 22.5473C191.752 22.2273 191.408 21.7713 191.248 21.1793C191.104 20.5873 191.032 19.8993 191.032 19.1153V15.5873C191.032 15.3473 191.048 15.1553 191.08 15.0113C191.112 14.8513 191.184 14.7393 191.296 14.6753C191.408 14.5953 191.592 14.5553 191.848 14.5553H193.336C193.336 14.9713 193.336 15.3553 193.336 15.7073C193.336 16.0593 193.336 16.4033 193.336 16.7393C193.336 17.0593 193.336 17.4033 193.336 17.7713C193.336 18.1233 193.336 18.5073 193.336 18.9233C193.336 19.8353 193.44 20.5073 193.648 20.9393C193.856 21.3553 194.144 21.6193 194.512 21.7313C194.88 21.8433 195.304 21.8993 195.784 21.8993C196.264 21.8993 196.688 21.8353 197.056 21.7073C197.424 21.5633 197.712 21.2913 197.92 20.8913C198.128 20.4913 198.232 19.8913 198.232 19.0913V14.5553H199.696C199.984 14.5553 200.192 14.5953 200.32 14.6753C200.448 14.7553 200.512 14.9873 200.512 15.3713V22.6433C200.512 24.0833 200.128 25.1313 199.36 25.7873C198.592 26.4593 197.36 26.7953 195.664 26.7953Z" fill="#394931"/>
</svg>
