<svg width="24" height="25" viewBox="0 0 24 25" fill="none" xmlns="http://www.w3.org/2000/svg">
<g clip-path="url(#clip0_13_365)">
<path d="M12 2.42363C15.2063 2.42363 15.5859 2.4377 16.8469 2.49395C18.0188 2.54551 18.6516 2.74238 19.0734 2.90645C19.6313 3.12207 20.0344 3.38457 20.4516 3.80176C20.8734 4.22363 21.1313 4.62207 21.3469 5.17988C21.5109 5.60176 21.7078 6.23926 21.7594 7.40645C21.8156 8.67207 21.8297 9.05176 21.8297 12.2533C21.8297 15.4596 21.8156 15.8393 21.7594 17.1002C21.7078 18.2721 21.5109 18.9049 21.3469 19.3268C21.1313 19.8846 20.8688 20.2877 20.4516 20.7049C20.0297 21.1268 19.6313 21.3846 19.0734 21.6002C18.6516 21.7643 18.0141 21.9611 16.8469 22.0127C15.5813 22.0689 15.2016 22.083 12 22.083C8.79375 22.083 8.41406 22.0689 7.15313 22.0127C5.98125 21.9611 5.34844 21.7643 4.92656 21.6002C4.36875 21.3846 3.96563 21.1221 3.54844 20.7049C3.12656 20.283 2.86875 19.8846 2.65313 19.3268C2.48906 18.9049 2.29219 18.2674 2.24063 17.1002C2.18438 15.8346 2.17031 15.4549 2.17031 12.2533C2.17031 9.04707 2.18438 8.66738 2.24063 7.40645C2.29219 6.23457 2.48906 5.60176 2.65313 5.17988C2.86875 4.62207 3.13125 4.21895 3.54844 3.80176C3.97031 3.37988 4.36875 3.12207 4.92656 2.90645C5.34844 2.74238 5.98594 2.54551 7.15313 2.49395C8.41406 2.4377 8.79375 2.42363 12 2.42363ZM12 0.262695C8.74219 0.262695 8.33438 0.276758 7.05469 0.333008C5.77969 0.389258 4.90313 0.595508 4.14375 0.89082C3.35156 1.2002 2.68125 1.60801 2.01563 2.27832C1.34531 2.94395 0.9375 3.61426 0.628125 4.40176C0.332812 5.16582 0.126563 6.03769 0.0703125 7.3127C0.0140625 8.59707 0 9.00488 0 12.2627C0 15.5205 0.0140625 15.9283 0.0703125 17.208C0.126563 18.483 0.332812 19.3596 0.628125 20.1189C0.9375 20.9111 1.34531 21.5814 2.01563 22.2471C2.68125 22.9127 3.35156 23.3252 4.13906 23.6299C4.90313 23.9252 5.775 24.1314 7.05 24.1877C8.32969 24.2439 8.7375 24.258 11.9953 24.258C15.2531 24.258 15.6609 24.2439 16.9406 24.1877C18.2156 24.1314 19.0922 23.9252 19.8516 23.6299C20.6391 23.3252 21.3094 22.9127 21.975 22.2471C22.6406 21.5814 23.0531 20.9111 23.3578 20.1236C23.6531 19.3596 23.8594 18.4877 23.9156 17.2127C23.9719 15.933 23.9859 15.5252 23.9859 12.2674C23.9859 9.00957 23.9719 8.60176 23.9156 7.32207C23.8594 6.04707 23.6531 5.17051 23.3578 4.41113C23.0625 3.61426 22.6547 2.94395 21.9844 2.27832C21.3188 1.6127 20.6484 1.2002 19.8609 0.895508C19.0969 0.600195 18.225 0.393945 16.95 0.337695C15.6656 0.276758 15.2578 0.262695 12 0.262695Z" fill="#6B7280"/>
<path d="M12 6.09863C8.59688 6.09863 5.83594 8.85957 5.83594 12.2627C5.83594 15.6658 8.59688 18.4268 12 18.4268C15.4031 18.4268 18.1641 15.6658 18.1641 12.2627C18.1641 8.85957 15.4031 6.09863 12 6.09863ZM12 16.2611C9.79219 16.2611 8.00156 14.4705 8.00156 12.2627C8.00156 10.0549 9.79219 8.26426 12 8.26426C14.2078 8.26426 15.9984 10.0549 15.9984 12.2627C15.9984 14.4705 14.2078 16.2611 12 16.2611Z" fill="#6B7280"/>
<path d="M19.8469 5.85484C19.8469 6.65171 19.2 7.2939 18.4078 7.2939C17.6109 7.2939 16.9688 6.64703 16.9688 5.85484C16.9688 5.05796 17.6156 4.41577 18.4078 4.41577C19.2 4.41577 19.8469 5.06265 19.8469 5.85484Z" fill="#6B7280"/>
</g>
<defs>
<clipPath id="clip0_13_365">
<rect width="24" height="24" fill="white" transform="translate(0 0.262695)"/>
</clipPath>
</defs>
</svg>
