<svg width="20" height="20" viewBox="0 0 24 25" fill="none" xmlns="http://www.w3.org/2000/svg">
<g clip-path="url(#clip0_13_370)">
<path d="M17.0725 0.262695H13.0278V16.6105C13.0278 18.5584 11.4722 20.1584 9.53626 20.1584C7.60034 20.1584 6.04469 18.5584 6.04469 16.6105C6.04469 14.6975 7.56577 13.1322 9.43257 13.0627V8.95836C5.31872 9.0279 2 12.4018 2 16.6105C2 20.854 5.38786 24.2627 9.57085 24.2627C13.7538 24.2627 17.1416 20.8192 17.1416 16.6105V8.2279C18.6627 9.34096 20.5295 10.0018 22.5 10.0366V5.93226C19.4579 5.82792 17.0725 3.32356 17.0725 0.262695Z" fill="#6B7280"/>
</g>
<defs>
<clipPath id="clip0_13_370">
<rect width="24" height="24" fill="white" transform="translate(0 0.262695)"/>
</clipPath>
</defs>
</svg>
